<?xml version="1.0" encoding="utf-8"?>
<!-- Generator: Adobe Illustrator 21.1.0, SVG Export Plug-In . SVG Version: 6.00 Build 0)  -->
<svg version="1.1" id="Layer_1" xmlns="http://www.w3.org/2000/svg" xmlns:xlink="http://www.w3.org/1999/xlink" x="0px" y="0px"
	 viewBox="0 0 291 45" style="enable-background:new 0 0 291 45;" xml:space="preserve">
<style type="text/css">
	.st0{fill:#FFFFFF;}
</style>
<title>logo</title>
<g id="XMLID_12_">
	<g id="XMLID_2_">
		<path id="XMLID_3_" class="st0" d="M23.2,7v29.9h-3.7v-3.4c-1.7,2.4-4.5,3.6-7.6,3.6c-6.2,0-10.8-4.4-10.8-10.9
			s4.5-10.9,10.8-10.9c3,0,5.7,1.1,7.4,3.4V7H23.2z M19.3,26.2c0-4.5-3.1-7.5-7.2-7.5s-7.2,2.9-7.2,7.5c0,4.5,3.1,7.5,7.2,7.5
			S19.3,30.7,19.3,26.2z"/>
		<path id="XMLID_6_" class="st0" d="M47.7,27.5H30.4c0.5,3.7,3.5,6.2,7.7,6.2c2.5,0,4.6-0.8,6.2-2.6l2.1,2.5
			c-1.9,2.3-4.9,3.5-8.4,3.5c-6.9,0-11.5-4.5-11.5-10.9c0-6.3,4.5-10.9,10.7-10.9s10.5,4.4,10.5,11C47.8,26.6,47.8,27.1,47.7,27.5z
			 M30.4,24.7h13.7c-0.4-3.6-3.1-6.1-6.8-6.1S30.8,21.1,30.4,24.7z"/>
		<path id="XMLID_9_" class="st0" d="M48.9,34.6l1.6-3.1c1.8,1.3,4.7,2.2,7.5,2.2c3.6,0,5.1-1.1,5.1-2.9c0-4.8-13.5-0.6-13.5-9.1
			c0-3.8,3.4-6.4,8.9-6.4c2.8,0,5.9,0.7,7.8,1.9l-1.6,3.1c-1.9-1.2-4.1-1.7-6.2-1.7c-3.4,0-5,1.2-5,2.9c0,5,13.5,0.9,13.5,9.2
			c0,3.9-3.5,6.3-9.2,6.3C54.1,37.1,50.6,36,48.9,34.6z"/>
		<path id="XMLID_11_" class="st0" d="M69.9,15.5h3.9v21.3h-3.9V15.5z"/>
		<path id="XMLID_25_" class="st0" d="M71.9,7L71.9,7l1.9,5.9h-3.9L71.9,7z"/>
		<path id="XMLID_14_" class="st0" d="M99.3,15.5v18.4c0,7.5-3.8,10.9-11.1,10.9c-3.9,0-7.8-1.1-10.2-3.2l1.9-3
			c2,1.7,5.1,2.8,8.2,2.8c5,0,7.3-2.3,7.3-7.2v-1.7c-1.9,2.2-4.6,3.3-7.7,3.3C81.6,36,77,31.8,77,25.6s4.7-10.3,10.8-10.3
			c3.2,0,6.1,1.2,7.9,3.5v-3.3C95.7,15.5,99.3,15.5,99.3,15.5z M95.6,25.6c0-4.1-3.1-6.9-7.3-6.9c-4.3,0-7.4,2.8-7.4,6.9
			s3.1,7,7.4,7C92.5,32.6,95.6,29.7,95.6,25.6z"/>
		<path id="XMLID_17_" class="st0" d="M124.6,24.6v12.3h-3.9V25c0-4.2-2.1-6.2-5.8-6.2c-4.1,0-6.8,2.5-6.8,7.1v11h-3.9V15.5h3.7v3.2
			c1.6-2.2,4.3-3.4,7.7-3.4C121,15.3,124.6,18.3,124.6,24.6z"/>
		<path id="XMLID_19_" class="st0" d="M166.2,24.4v12.5h-7.6V25.6c0-3.1-1.3-4.5-3.3-4.5c-2.2,0-3.8,1.5-3.8,4.9v10.8h-7.6V25.6
			c0-3.1-1.2-4.5-3.3-4.5c-2.3,0-3.9,1.5-3.9,4.9v10.8H129V15h7.3v2.3c1.6-1.8,3.9-2.7,6.5-2.7c3,0,5.5,1.1,7,3.4
			c1.7-2.2,4.4-3.4,7.6-3.4C162.5,14.7,166.2,17.6,166.2,24.4z"/>
		<path id="XMLID_21_" class="st0" d="M189.9,24.7v12.1h-7.1V34c-1.1,2.1-3.3,3.2-6.4,3.2c-5.2,0-8.1-2.9-8.1-6.7
			c0-4,2.9-6.5,9.7-6.5h4.3c-0.1-2.2-1.6-3.5-4.6-3.5c-2.1,0-4.4,0.7-5.9,1.9l-2.6-5.2c2.5-1.6,6.2-2.5,9.6-2.5
			C185.9,14.7,189.9,17.8,189.9,24.7z M182.3,29.8v-1.9H179c-2.5,0-3.3,0.9-3.3,2.2c0,1.3,1,2.2,2.9,2.2
			C180.2,32.4,181.7,31.6,182.3,29.8z"/>
		<path id="XMLID_24_" class="st0" d="M186.7,43.9l1.9-5.4c0.6,0.4,1.5,0.6,2.4,0.6c1.3,0,2.3-0.9,2.3-2.9V15h7.6v21.2
			c0,5.3-3.3,8.7-8.9,8.7C190,45,188,44.6,186.7,43.9z"/>
		<path id="XMLID_27_" class="st0" d="M226.4,27.9h-15.9c0.6,2.2,2.5,3.5,5.4,3.5c2.1,0,3.5-0.6,5-1.9l4,4.2
			c-2.1,2.3-5.2,3.5-9.3,3.5c-7.8,0-12.8-4.8-12.8-11.3c0-6.6,5.1-11.2,12-11.2c6.4,0,11.7,4.1,11.7,11.3
			C226.5,26.5,226.5,27.3,226.4,27.9z M210.5,23.8h8.9c-0.4-2.3-2.1-3.7-4.5-3.7C212.5,20.1,210.9,21.6,210.5,23.8z"/>
		<path id="XMLID_30_" class="st0" d="M227,35l2.3-5.2c2,1.2,4.9,2,7.6,2c2.6,0,3.4-0.6,3.4-1.5c0-2.9-12.9,0.4-12.9-8.3
			c0-4.1,3.8-7.2,10.6-7.2c3.1,0,6.4,0.6,8.6,1.9l-2.3,5.2c-2.2-1.2-4.3-1.6-6.3-1.6c-2.6,0-3.5,0.7-3.5,1.5c0,3,12.8-0.2,12.8,8.4
			c0,4-3.7,7.2-10.8,7.2C233,37.2,229.2,36.3,227,35z"/>
		<path id="XMLID_32_" class="st0" d="M264.6,36c-1.3,0.8-3.3,1.2-5.3,1.2c-5.6,0-8.9-2.7-8.9-8.3v-7.3h-3.2v-5.7h3.2v-5.7h7.6v5.7
			h5v5.7h-5v7.2c0,1.6,0.9,2.5,2.3,2.5c0.8,0,1.7-0.2,2.3-0.7L264.6,36z"/>
		<path id="XMLID_34_" class="st0" d="M289.3,15l-9.4,22.7c-2.3,5.6-5.5,7.3-9.8,7.3c-2.3,0-4.9-0.8-6.3-2l2.7-5.4
			c0.9,0.8,2.2,1.3,3.4,1.3c1.5,0,2.3-0.6,3-1.9l-9.4-22h7.8l5.4,13.3l5.4-13.3C282.1,15,289.3,15,289.3,15z"/>
	</g>
	<g id="XMLID_1_">
		<path id="XMLID_37_" class="st0" d="M194.8,8.3l2.2,2.6c0.1,0.1,0.3,0.1,0.3,0l2.1-2.5c0-0.1,0.1-0.1,0-0.2l-2.1-7.1
			c-0.1-0.2-0.4-0.2-0.4,0l-2.2,7C194.8,8.2,194.8,8.2,194.8,8.3z"/>
		<path id="XMLID_38_" class="st0" d="M193.3,12.3l1.4-3.9c0-0.1,0-0.2-0.1-0.3l-7.4-4.6c-0.2-0.1-0.4,0.1-0.3,0.3l6,8.5
			C193,12.5,193.3,12.5,193.3,12.3z"/>
		<path id="XMLID_39_" class="st0" d="M207.1,3.5l-7.4,4.6c-0.1,0.1-0.1,0.2-0.1,0.3l1.3,3.9c0.1,0.2,0.3,0.2,0.4,0.1l6.1-8.5
			C207.5,3.7,207.3,3.4,207.1,3.5z"/>
	</g>
</g>
</svg>
