<svg id="Layer_1" data-name="Layer 1" xmlns="http://www.w3.org/2000/svg" viewBox="0 0 22.63 22.1"><defs><style>.cls-1{fill:#d92d2d;}</style></defs><title>icons</title><path class="cls-1" d="M15.37,12.53l-.49-.9a.35.35,0,0,0-.64.07.34.34,0,0,0,0,.26l.49.9a1.53,1.53,0,0,1,0,1.43l-1.19,2.3H9l0,0L7.85,14.29a1.53,1.53,0,0,1,0-1.43L11,7.14v2.8a.35.35,0,0,0,.69,0V7.14l1,1.76a.35.35,0,0,0,.47.14.35.35,0,0,0,.14-.47L12.07,6.44a.35.35,0,0,0-.3-.18h-.9a.35.35,0,0,0-.3.18l-3.3,6.08a2.21,2.21,0,0,0,0,2.08l1,2H8a.35.35,0,1,0,0,.69h.35L7.7,20a.35.35,0,0,0,.34.43h6.56a.34.34,0,0,0,.27-.13.35.35,0,0,0,.06-.3l-.69-2.77h.35a.35.35,0,1,0,0-.69h-.22l1-2A2.22,2.22,0,0,0,15.37,12.53ZM8.48,19.79l.63-2.51h4.42v.05l.61,2.46Z"/><path class="cls-1" d="M21.79,3.19a1.25,1.25,0,0,0-2.44-.39v0H13l0,0a1.83,1.83,0,0,0-3.42,0l0,0H3.29l0,0a1.25,1.25,0,1,0,0,.78l0,0H5.91l-.18.12a5.11,5.11,0,0,0-.75.6A5,5,0,0,0,3.48,7.6v0h0a1.4,1.4,0,1,0,.79,0h0V7.59A4.33,4.33,0,0,1,8.44,3.54h1V3.6a1.83,1.83,0,0,0,3.65,0V3.54h1a4.33,4.33,0,0,1,4.27,4.06v.05h0a1.4,1.4,0,1,0,.79,0h0v0a5,5,0,0,0-1.51-3.34,5.15,5.15,0,0,0-.74-.6l-.18-.12h2.62v0a1.25,1.25,0,0,0,2.44-.39ZM2.09,3.75a.56.56,0,1,1,.56-.56A.56.56,0,0,1,2.09,3.75ZM4.53,9a.71.71,0,1,1-.71-.71A.71.71,0,0,1,4.53,9Zm6.79-4.42a1.14,1.14,0,1,1,1.14-1.14A1.14,1.14,0,0,1,11.31,4.59ZM19.52,9a.71.71,0,1,1-.71-.71A.71.71,0,0,1,19.52,9ZM20,3.19a.56.56,0,1,1,.56.56A.56.56,0,0,1,20,3.19Z"/><path class="cls-1" d="M11.31,11.44a1.86,1.86,0,1,0,1.86,1.86A1.87,1.87,0,0,0,11.31,11.44Zm0,3a1.17,1.17,0,1,1,1.17-1.17A1.17,1.17,0,0,1,11.31,14.48Z"/><path class="cls-1" d="M13.52,10.57a.34.34,0,0,0,.28.16h0a.34.34,0,0,0,.24-.1.34.34,0,0,0,.1-.24h0a.34.34,0,0,0-.28-.34H13.8a.34.34,0,0,0-.28.53Z"/></svg>