<svg id="Layer_1" data-name="Layer 1" xmlns="http://www.w3.org/2000/svg" viewBox="0 0 22.63 22.1"><defs><style>.cls-1{fill:#d92d2d;}</style></defs><title>icons</title><path class="cls-1" d="M12.11,14.22h5.44a.29.29,0,1,0,0-.57H12.11a.29.29,0,0,0,0,.57Z"/><path class="cls-1" d="M2.81,5.27a.29.29,0,0,0,.29.29H19.51a.29.29,0,0,0,.29-.29v-3A.29.29,0,0,0,19.51,2H3.09a.29.29,0,0,0-.29.29Zm.57-2.74H19.23V5H3.38Z"/><path class="cls-1" d="M12.11,12.83H16.6a.29.29,0,0,0,0-.57H12.11a.29.29,0,0,0,0,.57Z"/><path class="cls-1" d="M19.82,16.87a.29.29,0,0,0-.29-.29H3.09a.29.29,0,0,0-.29.29v3a.29.29,0,0,0,.29.29H19.53a.29.29,0,0,0,.29-.29Zm-.57,2.7H3.38V17.16H19.25Z"/><path class="cls-1" d="M4.92,10.38a1,1,0,1,0-1-1A1,1,0,0,0,4.92,10.38Zm0-1.54a.58.58,0,1,1-.58.58A.58.58,0,0,1,4.92,8.84Z"/><path class="cls-1" d="M4.44,4H7.28a.29.29,0,1,0,0-.57H4.44a.29.29,0,1,0,0,.57Z"/><path class="cls-1" d="M8.86,4h0a.29.29,0,0,0-.07-.56H8.73A.29.29,0,1,0,8.86,4Z"/><path class="cls-1" d="M18.18,12.83h0a.29.29,0,1,0-.13-.56h0a.29.29,0,1,0,.13.56Z"/><path class="cls-1" d="M2.81,14.92a.29.29,0,0,0,.29.29h7.62a.29.29,0,0,0,.29-.29V7.2a.29.29,0,0,0-.29-.29H3.09a.29.29,0,0,0-.29.29Zm7.62-.29h-7l1.81-2.08,1.28.92a.29.29,0,0,0,.4-.07l1.51-2.28,2,2.11Zm-7-7.15h7v4.9L8.61,10.46a.29.29,0,0,0-.17-.09H8.38a.28.28,0,0,0-.21.13L6.62,12.83l-1.25-.9A.28.28,0,0,0,5,12l-1.6,1.84Z"/><path class="cls-1" d="M19.82,7.2a.29.29,0,0,0-.29-.29h-7.4a.29.29,0,0,0-.29.29v3.57a.29.29,0,0,0,.29.29h7.4a.29.29,0,0,0,.29-.29Zm-.57,3.28H12.42v-3h6.82Z"/></svg>