<svg id="Layer_1" data-name="Layer 1" xmlns="http://www.w3.org/2000/svg" viewBox="0 0 22.63 22.1"><defs><style>.cls-1{fill:#d52c2c;}</style></defs><title>icons</title><path class="cls-1" d="M3.83,16.35H5.08V17H3.83Z"/><path class="cls-1" d="M5.7,16.35h.94V17H5.7Z"/><path class="cls-1" d="M3.83,17.91H6v.62H3.83Z"/><path class="cls-1" d="M6.64,17.91H9.75v.62H6.64Z"/><path class="cls-1" d="M17.55,16.35H18.8V17H17.55Z"/><path class="cls-1" d="M16,16.35h.94V17H16Z"/><path class="cls-1" d="M16.61,17.91H18.8v.62H16.61Z"/><path class="cls-1" d="M12.87,17.91H16v.62H12.87Z"/><path class="cls-1" d="M9.13,14.48h.62v.62H9.13Z"/><path class="cls-1" d="M10.38,14.48H11v.62h-.62Z"/><path class="cls-1" d="M11.62,14.48h.62v.62h-.62Z"/><path class="cls-1" d="M12.87,14.48h.62v.62h-.62Z"/><path class="cls-1" d="M19.73,1.7H2.89A.94.94,0,0,0,2,2.63V19.47a.94.94,0,0,0,.94.94H19.73a.94.94,0,0,0,.94-.94V2.63A.94.94,0,0,0,19.73,1.7Zm.31.94v.94H8.39L7.76,2.32h12A.31.31,0,0,1,20,2.63ZM2.89,2.32H7.07l.62,1.25H2.58V2.63A.31.31,0,0,1,2.89,2.32ZM19.73,19.78H2.89a.31.31,0,0,1-.31-.31V4.19H20V19.47A.31.31,0,0,1,19.73,19.78Z"/><circle class="cls-1" cx="3.52" cy="2.94" r="0.31"/><circle class="cls-1" cx="4.45" cy="2.94" r="0.31"/><circle class="cls-1" cx="5.39" cy="2.94" r="0.31"/><path class="cls-1" d="M14.43,11.67V8.24A.31.31,0,0,0,14.27,8L11.46,6.41a.31.31,0,0,0-.3,0L8.35,8a.31.31,0,0,0-.16.27v3.43a.31.31,0,0,0,.14.26l1.87,1.25a.31.31,0,0,0,.17.05h1.87a.31.31,0,0,0,.17-.05l1.87-1.25A.31.31,0,0,0,14.43,11.67ZM11.31,7l2.16,1.2-2.16,1.2L9.15,8.24Zm.84,5.57H10.47l-1.65-1.1V8.77l2.34,1.3a.31.31,0,0,0,.3,0l2.34-1.3v2.73Z"/></svg>