<svg id="Layer_1" data-name="Layer 1" xmlns="http://www.w3.org/2000/svg" viewBox="0 0 22.63 22.1"><defs><style>.cls-1{fill:#d62c2c;}</style></defs><title>icons</title><path class="cls-1" d="M19.29,12H17.68V3.08a.84.84,0,0,0-.84-.84H14.56a.26.26,0,0,0,0,.52h2.27a.33.33,0,0,1,.33.33V12H10a.84.84,0,0,0-.84.84v5.08H5.79a.33.33,0,0,1-.33-.33v-6.1H8.88a.84.84,0,0,0,.8-.84V7.25a.84.84,0,0,0-.84-.84H5.46V3.08a.33.33,0,0,1,.33-.33h7.57a.26.26,0,1,0,0-.52H5.79a.84.84,0,0,0-.84.84V6.41H3.34a.84.84,0,0,0-.84.84V10.6a.84.84,0,0,0,.84.84h1.6v6.1a.84.84,0,0,0,.84.84H9.16V19a.84.84,0,0,0,.79.83h9.38a.84.84,0,0,0,.79-.83V17.41a.26.26,0,0,0-.52,0V19h0l-3.79-2.9L19.61,13V16.2a.26.26,0,1,0,.52,0V12.79a.84.84,0,0,0-.84-.84ZM3,10.6V7.25a.33.33,0,0,1,.33-.33H8.84a.33.33,0,0,1,.33.33V10.6a.33.33,0,0,1-.33.33H3.34A.33.33,0,0,1,3,10.6Zm16.4,1.9-4.63,3.81a.23.23,0,0,1-.28,0L9.87,12.5a.32.32,0,0,1,.13,0h9.29a.32.32,0,0,1,.13,0ZM9.68,19h0V13l3.79,3.12Zm5.73-2.56,3.76,2.87h-9l3.76-2.87.29.24a.74.74,0,0,0,.94,0Z"/><path class="cls-1" d="M6.08,4.46a1,1,0,1,0,1-1A1,1,0,0,0,6.08,4.46Zm1.55,0a.52.52,0,1,1-.52-.52A.52.52,0,0,1,7.63,4.46Z"/><path class="cls-1" d="M5.62,8.93a1,1,0,1,0-1,1A1,1,0,0,0,5.62,8.93Zm-1.55,0a.52.52,0,1,1,.52.52A.52.52,0,0,1,4.07,8.93Z"/><path class="cls-1" d="M14.64,15.45a1,1,0,1,0-1-1A1,1,0,0,0,14.64,15.45Zm0-1.55a.52.52,0,1,1-.52.52A.52.52,0,0,1,14.64,13.9Z"/><path class="cls-1" d="M8.68,4.48a.26.26,0,0,0,.26.26h6.71a.26.26,0,0,0,0-.52H8.94A.26.26,0,0,0,8.68,4.48Z"/><path class="cls-1" d="M6.29,9.18H8.42a.26.26,0,1,0,0-.52H6.29a.26.26,0,1,0,0,.52Z"/></svg>